<?xml version="1.0" standalone="no"?><!DOCTYPE svg PUBLIC "-//W3C//DTD SVG 1.1//EN" "http://www.w3.org/Graphics/SVG/1.1/DTD/svg11.dtd"><svg t="1499324652682" class="icon" style="" viewBox="0 0 1024 1024" version="1.1" xmlns="http://www.w3.org/2000/svg" p-id="12784" xmlns:xlink="http://www.w3.org/1999/xlink" width="200" height="200"><defs><style type="text/css"></style></defs><path d="M597.504 404.992l-71.168 0 0-71.68c-0.512-15.872-13.824-28.16-29.696-27.136-14.848 0.512-26.624 12.288-27.136 27.136l0 99.84c0 15.872 12.8 28.672 28.672 28.672l99.84 0c15.872 0 28.672-12.8 28.672-28.672C626.176 417.792 613.376 404.992 597.504 404.992z" p-id="12785" fill="#bfbfbf"></path><path d="M512 91.136c-180.736-0.512-327.168 145.92-327.68 326.656 0 134.144 181.248 385.024 274.432 504.832 26.112 29.184 70.656 32.256 100.352 6.144 2.048-2.048 4.096-4.096 6.144-6.144 93.184-119.808 274.432-370.176 274.432-504.832C839.168 237.056 692.736 91.136 512 91.136zM512 632.832c-118.272 0-214.016-95.744-214.016-214.016S393.728 205.312 512 205.312s214.016 95.744 214.016 214.016C726.016 537.088 630.272 632.832 512 632.832z" p-id="12786" fill="#bfbfbf"></path></svg>