<?xml version="1.0" standalone="no"?><!DOCTYPE svg PUBLIC "-//W3C//DTD SVG 1.1//EN" "http://www.w3.org/Graphics/SVG/1.1/DTD/svg11.dtd"><svg t="1499310998632" class="icon" style="" viewBox="0 0 1024 1024" version="1.1" xmlns="http://www.w3.org/2000/svg" p-id="10840" xmlns:xlink="http://www.w3.org/1999/xlink" width="200" height="200"><defs><style type="text/css"></style></defs><path d="M160.3401 189.075658l698.094578 7.887955 17.09093 46.013793-6.573476 600.808445-35.496339 28.922863-650.766126 5.258727-34.18168-38.125658 2.629319-619.213854z" fill="#19BBF1" p-id="10841"></path><path d="M815.317434 166.009653H721.480826v-26.810305c0-8.026131-6.500144-14.542982-14.54226-14.542982s-14.54226 6.500234-14.54226 14.542982v26.810305H331.507693v-26.810305c0-8.026131-6.500234-14.542982-14.542982-14.542982-8.042116 0-14.541718 6.500234-14.541718 14.542982v26.810305H208.586475c-43.270141 0-78.483987 35.212581-78.483987 78.483986v576.544554c0 43.268876 35.211317 78.484077 78.483987 78.484077H815.319873c43.270141 0 78.484077-35.212581 78.484076-78.484077V244.47639c0-43.270141-35.212581-78.466737-78.484076-78.466737h-0.002439z m45.985435 655.009394c0 25.366591-20.638171 45.98679-45.985435 45.98679H208.582682c-25.365327 0-45.985526-20.638081-45.985526-45.98679V329.782208h698.705713v491.236839z m0-523.733403H162.597156v-52.809254c0-25.348077 20.638171-45.984984 45.985526-45.984984h93.836518v70.683995c0 8.026041 6.499602 14.542892 14.542982 14.542892 8.042839 0 14.542982-6.501408 14.542982-14.542892v-70.683995h360.903876v70.683995c0 8.026041 6.500234 14.542892 14.54226 14.542892 8.042206 0 14.543705-6.501408 14.543705-14.542892v-70.683995h93.836518c25.365236 0 45.985435 20.636907 45.985435 45.984984v52.809254h-0.014089z" fill="#19BBF1" p-id="10842"></path><path d="M477.0635 701.347223h-0.015353c-4.481961 0-8.539008-1.820492-11.471952-4.759306l-103.556073-103.55526c-6.352575-6.352666-6.352575-16.622306 0-22.97741 6.352575-6.355194 16.621583-6.35384 22.976687 0l92.064162 92.066058 206.833445-206.833355c6.353749-6.352575 16.620951-6.352575 22.976056 0 6.353749 6.352575 6.352485 16.621583 0 22.977952L488.548366 696.585388c-2.933035 2.941343-6.991346 4.761925-11.473307 4.761926h-0.016707 0.005148v-0.000091z" fill="#FFFFFF" p-id="10843"></path><path d="M302.419109 198.491406h29.086055l-0.010205 70.94391-29.046228-0.575101" fill="#19BBF1" p-id="10844"></path><path d="M162.597156 294.893844h698.694153v36.427176H162.597156zM301.884467 198.491406h30.196521v70.684627h-30.196521z" fill="#FFFFFF" p-id="10845"></path><path d="M332.04956 269.518132c0 8.074267-6.747958 14.619385-15.071303 14.619385-8.323887 0-15.07067-6.545119-15.07067-14.619385 0-8.074176 6.746783-14.620018 15.07067-14.620018 8.323255 0 15.071302 6.545841 15.071303 14.620018zM691.687454 198.38231h30.196521v70.684537h-30.196521z" fill="#FFFFFF" p-id="10846"></path><path d="M721.851914 269.409036c0 8.074176-6.748048 14.619385-15.071392 14.619385-8.324519 0-15.069948-6.545209-15.069948-14.619385s6.745429-14.620018 15.069948-14.620018c8.323345 0 15.071393 6.545841 15.071392 14.620018z" fill="#FFFFFF" p-id="10847"></path></svg>