<?xml version="1.0" standalone="no"?><!DOCTYPE svg PUBLIC "-//W3C//DTD SVG 1.1//EN" "http://www.w3.org/Graphics/SVG/1.1/DTD/svg11.dtd"><svg t="1499234466381" class="icon" style="" viewBox="0 0 1024 1024" version="1.1" xmlns="http://www.w3.org/2000/svg" p-id="4736" xmlns:xlink="http://www.w3.org/1999/xlink" width="200" height="200"><defs><style type="text/css"></style></defs><path d="M512 102.4l-409.6 211.627h819.2z" p-id="4737" fill="#1296db"></path><path d="M102.4 853.333h819.2v68.267h-819.2v-68.267z" p-id="4738" fill="#1296db"></path><path d="M211.627 375.467v409.6c0 20.48 13.653 34.133 34.133 34.133s34.133-13.653 34.133-34.133v-409.6c0-20.48-13.653-34.133-34.133-34.133s-34.133 13.653-34.133 34.133z" p-id="4739" fill="#1296db"></path><path d="M382.293 375.467v409.6c0 20.48 13.653 34.133 34.133 34.133s34.133-13.653 34.133-34.133v-409.6c0-20.48-13.653-34.133-34.133-34.133s-34.133 13.653-34.133 34.133z" p-id="4740" fill="#1296db"></path><path d="M573.44 375.467v409.6c0 20.48 13.653 34.133 34.133 34.133s34.133-13.653 34.133-34.133v-409.6c0-20.48-13.653-34.133-34.133-34.133s-34.133 13.653-34.133 34.133z" p-id="4741" fill="#1296db"></path><path d="M750.933 375.467v409.6c0 20.48 13.653 34.133 34.133 34.133s34.133-13.653 34.133-34.133v-409.6c0-20.48-13.653-34.133-34.133-34.133s-34.133 13.653-34.133 34.133z" p-id="4742" fill="#1296db"></path></svg>