<?xml version="1.0" standalone="no"?><!DOCTYPE svg PUBLIC "-//W3C//DTD SVG 1.1//EN" "http://www.w3.org/Graphics/SVG/1.1/DTD/svg11.dtd"><svg t="1500534769567" class="icon" style="" viewBox="0 0 1024 1024" version="1.1" xmlns="http://www.w3.org/2000/svg" p-id="21601" xmlns:xlink="http://www.w3.org/1999/xlink" width="16" height="16"><defs><style type="text/css"></style></defs><path d="M454.158779 821.136827H199.744953a9.509983 9.509983 0 0 1-9.509983-9.509984V385.424968h339.881301c128.9943-74.827873 249.076374-65.938003 374.534731 18.934069V285.827836c0-40.400368-32.750726-73.152271-73.152271-73.152271h-73.15227v-34.991138a42.3066 42.3066 0 0 0-64.049421-38.524729 42.3066 42.3066 0 0 0-20.439051 38.524729v34.991138H351.259864v-34.991138a42.3066 42.3066 0 1 0-84.489649 0v34.991138h-73.151094c-40.400368 0-73.151094 32.467145-73.151094 74.328958v534.036992c0 27.456812 32.750726 69.621033 73.151094 69.621033h304.010002C475.289722 872.162677 463.614635 849.567935 454.158779 821.136827z" p-id="21602" fill="#19bbf1"></path><path d="M705.390844 385.996838c101.392756-0.39419 193.020188 60.380511 232.094429 153.941239 39.075418 93.560728 17.886817 201.449972-53.669866 273.28553-71.555507 71.835558-179.361206 93.443059-273.074903 54.733591-93.712521-38.709469-154.843758-130.100386-154.844935-231.493142a249.984777 249.984777 0 0 1 249.495275-250.467218z m86.688877 208.101783a4.683214 4.683214 0 0 0 0-6.60592l-34.787572-34.954661a4.599669 4.599669 0 0 0-3.261776-1.337893 4.682037 4.682037 0 0 0-3.260599 1.337893L621.822541 681.904174a4.43258 4.43258 0 0 0-1.254348 2.75933l-16.055893 50.173929a4.598492 4.598492 0 0 0 4.431403 6.021107h1.421438l51.010553-16.724251a4.509064 4.509064 0 0 0 2.173341-1.506159l128.530686-128.529509z m17.815039-59.313256c-11.485641-11.280897-29.941975-11.114984-41.222872 0.370656-8.247398 8.448612 35.632432 47.501673 41.593528 40.852216 11.280897-11.485641 11.114984-29.941975-0.370656-41.222872z" p-id="21603" fill="#19bbf1"></path><path d="M340.062511 494.234381h-72.954587c-12.997683 0-23.533738-10.536054-23.533738-23.533737s10.536054-23.533738 23.533738-23.533738h72.954587c12.997683 0 23.533738 10.536054 23.533738 23.533738s-10.536054 23.533738-23.533738 23.533737zM340.062511 618.950248h-72.954587c-12.997683 0-23.533738-10.536054-23.533738-23.533738s10.536054-23.533738 23.533738-23.533737h72.954587c12.997683 0 23.533738 10.536054 23.533738 23.533737s-10.536054 23.533738-23.533738 23.533738zM340.062511 743.666115h-72.954587c-12.997683 0-23.533738-10.536054-23.533738-23.533738s10.536054-23.533738 23.533738-23.533738h72.954587c12.997683 0 23.533738 10.536054 23.533738 23.533738s-10.536054 23.533738-23.533738 23.533738z" p-id="21604" fill="#19bbf1"></path></svg>