<?xml version="1.0" standalone="no"?><!DOCTYPE svg PUBLIC "-//W3C//DTD SVG 1.1//EN" "http://www.w3.org/Graphics/SVG/1.1/DTD/svg11.dtd"><svg t="1499310053123" class="icon" style="" viewBox="0 0 1024 1024" version="1.1" xmlns="http://www.w3.org/2000/svg" p-id="9156" xmlns:xlink="http://www.w3.org/1999/xlink" width="200" height="200"><defs><style type="text/css"></style></defs><path d="M844.854389 128.297015 230.409159 128.297015l0 102.092189-74.674747 0c-14.058181 0-27.417443 9.970072-27.417443 24.02723l0 51.045583c0 14.057157 13.359262 27.018354 27.417443 27.018354l74.674747 0 0 51.045583-74.674747 0c-14.058181 0-27.417443 9.970072-27.417443 24.02723l0 51.045583c0 14.057157 13.359262 27.018354 27.417443 27.018354l74.674747 0 0 51.045583-74.674747 0c-14.058181 0-27.417443 9.970072-27.417443 24.02723l0 51.046606c0 14.057157 13.359262 27.01733 27.417443 27.01733l74.674747 0 0 51.046606-74.674747 0c-14.058181 0-27.417443 9.970072-27.417443 24.026206l0 51.046606c0 14.057157 13.359262 27.018354 27.417443 27.018354l74.674747 0 0 102.092189 614.44523 0c28.163433 0 49.151443-24.426319 49.151443-52.541657L894.005832 177.847547C894.006855 149.632949 873.018845 128.297015 844.854389 128.297015zM383.546931 842.939271l-102.092189 0 0-51.045583 27.417443 0c14.007015 0 23.62814-12.961196 23.62814-27.018354l0-51.046606c0-14.056134-9.570983-24.026206-23.62814-24.026206l-27.417443 0 0-51.046606 27.417443 0c14.007015 0 23.62814-12.960173 23.62814-27.01733l0-51.046606c0-14.057157-9.570983-24.02723-23.62814-24.02723l-27.417443 0 0-51.045583 27.417443 0c14.007015 0 23.62814-12.961196 23.62814-27.018354l0-51.045583c0-14.057157-9.570983-24.02723-23.62814-24.02723l-27.417443 0 0-51.045583 27.417443 0c14.007015 0 23.62814-12.961196 23.62814-27.018354l0-51.045583c0-14.058181-9.570983-24.02723-23.62814-24.02723l-27.417443 0 0-51.045583 102.092189 0L383.546931 842.939271z" fill="#f7b55e" p-id="9157"></path></svg>