<?xml version="1.0" standalone="no"?><!DOCTYPE svg PUBLIC "-//W3C//DTD SVG 1.1//EN" "http://www.w3.org/Graphics/SVG/1.1/DTD/svg11.dtd"><svg t="1499244598037" class="icon" style="" viewBox="0 0 1024 1024" version="1.1" xmlns="http://www.w3.org/2000/svg" p-id="7909" xmlns:xlink="http://www.w3.org/1999/xlink" width="200" height="200"><defs><style type="text/css"></style></defs><path d="M66.945715 146.544611l0 724.970486c3.281743 51.071166 31.295773 79.084173 82.383312 82.383312l741.446739 0c37.893029-3.299139 60.950164-24.714891 65.906036-65.906036L956.681802 690.272219 808.392454 690.272219 808.392454 130.067334c0-41.191144-21.433148-62.616106-65.906036-65.906036L149.329027 64.161299c-14.83487 1.641383-32.95353 8.238638-52.727898 23.065322C83.421968 95.465259 73.526597 116.882034 66.945715 146.544611zM264.664845 675.436326c3.281743-3.289929 8.238638-4.940522 14.81952-6.589069 52.728922-18.125823 82.383312-47.781236 88.980567-84.031858l1.641383-14.827707-1.641383-4.939499-54.369282-88.972381c-4.955872-13.186324-9.895371-26.364461-14.83487-37.901215l0-3.289929c-4.939499-13.186324-8.238638-29.6636-11.536754-47.789423-3.298116-24.714891-3.298116-47.780213 1.657756-69.196988 3.281743-14.827707 8.238638-28.013007 14.81952-41.191144 4.939499-11.536754 11.536754-21.424962 19.775392-31.30396 14.83487-19.775392 32.95353-34.602076 51.071166-44.490284 14.835893-8.238638 29.670763-13.178137 44.490284-14.827707l8.238638-1.64957 0-1.64957c1.657756 0 3.299139 0 3.299139 0 1.641383 0 3.298116 0 4.939499 0 4.939499 0 8.238638 0 13.178137 0l0 1.64957c18.134009 1.64957 36.251645 6.589069 51.087539 14.827707l3.298116 1.64957c13.178137 6.589069 26.356274 16.476253 37.893029 31.30396l11.536754 13.186324c8.238638 9.878998 14.81952 21.416775 21.415752 32.95353l4.939499 11.528568c11.536754 29.662577 14.83487 62.616106 8.238638 97.209996l-6.597255 34.603099-3.281743 11.536754c-4.955872 14.826684-9.895371 29.65439-16.476253 42.840714l-4.955872 8.238638-4.939499 8.238638-44.490284 77.434603c-1.641383 4.947685 0 8.238638 0 14.827707 3.298116 21.424962 14.835893 41.191144 34.610262 56.027038 16.476253 11.528568 34.593889 21.415752 54.369282 28.004821 44.490284 16.476253 77.44279 39.542598 98.859565 70.854744 6.597255 8.238638 11.536754 18.117636 18.117636 31.30396 1.657756 8.238638 4.955872 19.767206 9.895371 34.602076L149.329027 805.608038c6.580882-13.186324 9.880021-24.714891 14.81952-34.602076 4.939499-13.186324 11.536754-23.065322 18.134009-31.30396C200.400193 711.687972 228.4132 690.272219 264.664845 675.436326z" p-id="7910" fill="#f7b55e"></path><path d="M841.34496 163.020864l0 247.148913 115.335818 0 0-247.148913L841.34496 163.020864z" p-id="7911" fill="#f7b55e"></path><path d="M841.34496 443.123306l0 214.195384 115.335818 0L956.680778 443.123306 841.34496 443.123306z" p-id="7912" fill="#f7b55e"></path></svg>