<?xml version="1.0" standalone="no"?><!DOCTYPE svg PUBLIC "-//W3C//DTD SVG 1.1//EN" "http://www.w3.org/Graphics/SVG/1.1/DTD/svg11.dtd"><svg t="1499327989586" class="icon" style="" viewBox="0 0 1024 1024" version="1.1" xmlns="http://www.w3.org/2000/svg" p-id="15675" xmlns:xlink="http://www.w3.org/1999/xlink" width="200" height="200"><defs><style type="text/css"></style></defs><path d="M516.962462 224.807385l-217.481846 217.403077L878.276923 442.210462c36.942769 0 66.599385 29.932308 66.599385 66.756923 0 36.824615-29.696 66.717538-66.599385 66.717538L304.64 575.684923l220.002462 219.923692c26.939077 26.939077 26.939077 70.459077 0 97.398154-26.742154 26.781538-70.498462 26.781538-97.240615 0l-328.861538-328.861538c-14.296615-14.375385-19.377231-29.223385-19.377231-55.335385 0-28.041846 8.625231-43.283692 25.009231-59.746462l318.385231-318.464c26.072615-26.072615 68.214154-26.072615 94.365538 0C542.956308 156.672 543.035077 198.813538 516.962462 224.807385L516.962462 224.807385z" p-id="15676" fill="#1296db"></path></svg>