<?xml version="1.0" standalone="no"?><!DOCTYPE svg PUBLIC "-//W3C//DTD SVG 1.1//EN" "http://www.w3.org/Graphics/SVG/1.1/DTD/svg11.dtd"><svg t="1499309768762" class="icon" style="" viewBox="0 0 1024 1024" version="1.1" xmlns="http://www.w3.org/2000/svg" p-id="4529" xmlns:xlink="http://www.w3.org/1999/xlink" width="200" height="200"><defs><style type="text/css"></style></defs><path d="M955.807387 829.27711c0 70.488401-57.141418 127.631866-127.631866 127.631866H195.822432c-70.489424 0-127.631866-57.143465-127.631865-127.631866V196.921975c0-70.488401 57.142441-127.631866 127.631865-127.631866H828.175521c70.490447 0 127.631866 57.142441 127.631866 127.631866v632.355135z" fill="#19BBF1" p-id="4530"></path><path d="M831.077617 799.443641c0 10.530844-8.614192 19.073404-19.073404 19.073404H211.99374c-10.529821 0-19.073404-8.608052-19.073404-19.073404 0-10.530844 8.610098-19.073404 19.073404-19.073404h600.00638c10.463306-0.004093 19.077497 8.54256 19.077497 19.073404z m-573.482283-78.089519l41.197285-148.763139 352.757182-352.688621c16.361643-16.361643 37.554314-16.226566 53.780881 0l80.674391 80.670298c16.22759 16.225543 16.361643 37.354769 0 53.78088L433.440271 707.179284l-148.889005 41.194215c-20.532639 4.309142-31.194466-6.355755-26.955932-27.019377z m353.684298-407.270751l80.672345 80.606853 53.78088-53.780881c13.975293-13.84431 13.049201-13.710256 0-26.889417l-53.78088-53.716412c-12.715603-13.709233-13.975293-13.709233-26.891464 0l-53.780881 53.779857zM355.621928 569.745169l80.668251 80.673367 228.770334-228.768287-80.669274-80.669274-228.769311 228.764194z m-57.291844 137.89665l111.069655-30.401404-80.670298-80.669274-30.399357 111.070678z" fill="#FFFFFF" p-id="4531"></path></svg>