<?xml version="1.0" standalone="no"?><!DOCTYPE svg PUBLIC "-//W3C//DTD SVG 1.1//EN" "http://www.w3.org/Graphics/SVG/1.1/DTD/svg11.dtd"><svg t="1500536492100" class="icon" style="" viewBox="0 0 1024 1024" version="1.1" xmlns="http://www.w3.org/2000/svg" p-id="25646" xmlns:xlink="http://www.w3.org/1999/xlink" width="16" height="16"><defs><style type="text/css"></style></defs><path d="M830.698083 33.945177l-637.395846 0c-88.013927 0-159.357156 71.348825-159.357156 159.357156l0 637.395646c0 88.00953 71.348825 159.353758 159.357156 159.353758l637.395846 0c88.00833 0 159.353758-71.343229 159.353758-159.353758l0-637.394646C990.050842 105.294003 918.706413 33.945177 830.698083 33.945177zM926.932036 814.836133c0 62.509419-50.675642 113.18526-113.184061 113.18526L209.160685 928.021393c-62.509419 0-113.185061-50.675642-113.185061-113.18526l0-604.581694c0-62.508219 50.675642-113.184061 113.185061-113.184061l604.58729 0c62.508219 0 113.184061 50.675642 113.184061 113.184061L926.932036 814.836133zM588.416749 852.195004c-46.011005 0-90.652737-9.016087-132.691635-26.795633-40.592079-17.170358-77.045563-41.746896-108.343743-73.047274-31.299179-31.292783-55.871319-67.746268-73.036281-108.338347-17.783942-42.033501-26.80003-86.676433-26.80003-132.686239 0-46.006608 9.016087-90.653937 26.80003-132.687238 17.164962-40.592079 41.737102-77.045563 73.036281-108.343743 31.303576-31.29818 67.751664-55.871319 108.343743-73.041678 42.038898-17.779545 86.680631-26.795633 132.691635-26.795633 54.825828 0 109.348861 13.34795 157.660906 38.59823l0.182676 0.098533c2.723154 1.452415 26.617353 14.957859 26.617353 39.103488 0 11.437445-5.549238 22.115805-15.632601 30.085202-6.059891 4.784756-12.03564 7.236694-13.172069 7.685189l-1.134031 0.437503-1.182198 0.306192c-48.948613 12.510318-93.219597 41.393735-124.658881 81.340451-32.408227 41.168288-49.541411 90.688913-49.541411 143.213701 0 52.523789 17.131985 102.044214 49.541411 143.208305 31.439284 39.945717 75.711268 68.83453 124.658881 81.339252l1.229167 0.358757c7.761738 2.519892 33.100558 12.494928 33.100558 34.954101 0 11.04691-5.346775 21.709081-15.88423 31.688515-6.158425 5.82585-12.255491 9.626273-12.928035 10.038594l-0.587202 0.358757-0.609187 0.317185C697.765611 838.846854 643.242578 852.195004 588.416749 852.195004L588.416749 852.195004 588.416749 852.195004 588.416749 852.195004z" p-id="25647" fill="#19bbf1"></path></svg>