<?xml version="1.0" standalone="no"?><!DOCTYPE svg PUBLIC "-//W3C//DTD SVG 1.1//EN" "http://www.w3.org/Graphics/SVG/1.1/DTD/svg11.dtd"><svg t="1499235111932" class="icon" style="" viewBox="0 0 1024 1024" version="1.1" xmlns="http://www.w3.org/2000/svg" p-id="14321" xmlns:xlink="http://www.w3.org/1999/xlink" width="200" height="200"><defs><style type="text/css"></style></defs><path d="M621.8 116.7v87.8c0 24.3-19.7 43.9-43.9 43.9H534v175.7h351.4v307.4c24.3 0 43.9 19.7 43.9 43.9v87.8c0 24.3-19.7 43.9-43.9 43.9H753.6c-24.3 0-43.9-19.7-43.9-43.9v-87.8c0-24.2 19.7-43.9 43.9-43.9h87.9V468.1H534v263.5h43.9c24.3 0 43.9 19.7 43.9 43.9v87.8c0 24.3-19.7 43.9-43.9 43.9H446.1c-24.3 0-43.9-19.7-43.9-43.9v-87.8c0-24.2 19.7-43.9 43.9-43.9H490V468.1H182.6v263.5h87.8c24.3 0 43.9 19.7 43.9 43.9v87.8c0 24.3-19.7 43.9-43.9 43.9H138.7c-24.3 0-43.9-19.7-43.9-43.9v-87.8c0-24.2 19.7-43.9 43.9-43.9V424.2H490V248.5h-43.9c-24.3 0-43.9-19.7-43.9-43.9v-87.8h219.6z" p-id="14322" fill="#1296db"></path></svg>