<?xml version="1.0" standalone="no"?><!DOCTYPE svg PUBLIC "-//W3C//DTD SVG 1.1//EN" "http://www.w3.org/Graphics/SVG/1.1/DTD/svg11.dtd"><svg t="1500450916199" class="icon" style="" viewBox="0 0 1024 1024" version="1.1" xmlns="http://www.w3.org/2000/svg" p-id="2375" xmlns:xlink="http://www.w3.org/1999/xlink" width="16" height="16"><defs><style type="text/css"></style></defs><path d="M442.154496 913.408C469.853696 918.9376 497.143296 921.6 523.869696 921.6 700.151296 921.6 850.013696 806.6048 905.207296 646.9632 911.812096 627.8656 928.656896 614.4 948.573696 614.4L959.888896 614.4C990.711296 614.4 1013.085696 645.12 1003.306496 674.7648 936.183296 877.7216 746.896896 1024 523.869696 1024 225.680896 1024-12.194304 762.5216 21.546496 453.5808 47.402496 216.9344 239.146496 25.6512 473.130496 2.5088 490.231296 0.8192 507.127296 0 523.869696 0 661.802496 0 786.679296 56.1152 877.764096 146.8928L877.764096 51.2C877.764096 22.9376 900.394496 0 928.298496 0 956.202496 0 978.832896 22.9376 978.832896 51.2L978.832896 256C978.832896 284.2624 956.202496 307.2 928.298496 307.2L726.109696 307.2C698.154496 307.2 675.524096 284.2624 675.524096 256 675.524096 227.7376 698.154496 204.8 726.109696 204.8L790.826496 204.8C719.556096 141.1584 626.116096 102.4 523.869696 102.4 274.167296 102.4 76.586496 332.8 127.479296 594.7392 158.455296 753.8688 285.021696 882.0736 442.154496 913.408Z" p-id="2376" fill="#1296db"></path></svg>