<?xml version="1.0" standalone="no"?><!DOCTYPE svg PUBLIC "-//W3C//DTD SVG 1.1//EN" "http://www.w3.org/Graphics/SVG/1.1/DTD/svg11.dtd"><svg t="1499235356431" class="icon" style="" viewBox="0 0 1024 1024" version="1.1" xmlns="http://www.w3.org/2000/svg" p-id="15571" xmlns:xlink="http://www.w3.org/1999/xlink" width="200" height="200"><defs><style type="text/css"></style></defs><path d="M403.452283 567.153134c136.830365 0 248.158916-111.328551 248.158916-248.158916 0-136.870274-111.328551-248.211105-248.158916-248.211105-136.870274 0-248.212128 111.340831-248.212128 248.211105C155.240155 455.824583 266.582009 567.153134 403.452283 567.153134zM403.452283 125.935224c106.440218 0 193.004759 86.605473 193.004759 193.058994 0 106.426915-86.564541 193.005782-193.004759 193.005782-106.453521 0-193.060017-86.578868-193.060017-193.005782C210.393289 212.540697 296.998763 125.935224 403.452283 125.935224zM899.794675 374.132003c0-106.440218-86.590124-193.044668-193.031365-193.044668l0 55.151088c76.022441 0 137.879254 61.85886 137.879254 137.89358 0 76.010161-61.856813 137.854695-137.879254 137.854695l0 55.152111C813.204551 567.138808 899.794675 480.558917 899.794675 374.132003zM789.491477 898.064776l165.456333 0-34.672684-242.745626-123.930567-32.852222-13.706163 53.429887 88.248903 23.695678 20.478404 143.321196-101.874225 0L789.491477 898.064776zM573.716108 623.651916l-17.020652 52.459792 96.449679 31.277354 22.579251 190.674691L131.124921 898.063753l22.581298-190.674691 96.448656-31.277354-17.019629-52.459792-130.030495 42.156122L69.051167 953.216887l668.747997 0-34.051537-287.407825L573.716108 623.651916z" p-id="15572" fill="#1296db"></path></svg>