<?xml version="1.0" standalone="no"?><!DOCTYPE svg PUBLIC "-//W3C//DTD SVG 1.1//EN" "http://www.w3.org/Graphics/SVG/1.1/DTD/svg11.dtd"><svg t="1499324705371" class="icon" style="" viewBox="0 0 1024 1024" version="1.1" xmlns="http://www.w3.org/2000/svg" p-id="14197" xmlns:xlink="http://www.w3.org/1999/xlink" width="200" height="200"><defs><style type="text/css"></style></defs><path d="M535.576463 49.500391c-2.761903 0-5.479805 0.163729-8.233522 0.206708l0 485.969137L49.34843 535.676236c0 268.509407 217.692021 486.184031 486.228033 486.184031 268.543176 0 486.235197-217.675648 486.235197-486.184031S804.119639 49.500391 535.576463 49.500391zM532.830933 977.814098c-245.728564 0-427.315272-200.942545-444.933535-409.645844l472.626247 0L560.523645 88.23867c2.521426-0.042979 5.024433-0.378623 7.544837-0.189312 206.964702 15.855106 409.697009 199.179388 409.697009 444.88237C977.765491 778.63471 778.56052 977.814098 532.830933 977.814098zM500.330728 0C229.541395 18.117636 13.647323 236.248655 0.020978 507.699044l500.30975 0L500.330728 0z" p-id="14198" fill="#bfbfbf"></path></svg>