<?xml version="1.0" standalone="no"?><!DOCTYPE svg PUBLIC "-//W3C//DTD SVG 1.1//EN" "http://www.w3.org/Graphics/SVG/1.1/DTD/svg11.dtd"><svg t="1499234733292" class="icon" style="" viewBox="0 0 1024 1024" version="1.1" xmlns="http://www.w3.org/2000/svg" p-id="10322" xmlns:xlink="http://www.w3.org/1999/xlink" width="200" height="200"><defs><style type="text/css"></style></defs><path d="M512.873 959.62c247.319 0 447.81-200.491 447.81-447.81S760.191 64 512.873 64 65.062 264.491 65.062 511.81s200.492 447.81 447.811 447.81z m0-96.823c-193.844 0-350.986-157.142-350.986-350.986s157.142-350.986 350.986-350.986S863.859 317.966 863.859 511.81 706.717 862.797 512.873 862.797z" fill="#1296db" p-id="10323"></path><path d="M547.848 254.775c36.93 2.024 65.235 33.688 63.215 70.725-2.019 37.034-33.595 65.416-70.527 63.392-36.933-2.024-65.234-33.69-63.216-70.725 2.02-37.036 33.595-65.418 70.528-63.392z m-166.3 268.536s129.756-95.343 172.212-76.754c42.454 18.59-14.95 136.12-19.135 153.51-4.186 17.39-31.094 150.509 57.405 76.752 0 0 44.249-29.383-19.136 38.376-63.385 67.758-143.51 89.345-153.076 38.377-7.213-38.422 30.676-177.772 38.268-230.26 2.48-17.142-19.134 0-19.134 0s-62.215 43.803-76.54 19.189c-2.28-3.92 13.063-15.949 19.136-19.19z" fill="#1296db" p-id="10324"></path></svg>